<svg xmlns="http://www.w3.org/2000/svg" viewBox="0 0 400 400" fill="none" role="img" aria-label="Monocular logo">

<defs>
  <linearGradient id="outerRing" x1="166" y1="122" x2="344" y2="282" gradientUnits="userSpaceOnUse">
    <stop offset="0" stop-color="#C9A227"/>
    <stop offset="0.42" stop-color="#F28C28"/>
    <stop offset="1" stop-color="#D96B0B"/>
  </linearGradient>
  <radialGradient id="lensGlass" cx="0" cy="0" r="1" gradientUnits="userSpaceOnUse"
      gradientTransform="translate(257 184) rotate(115) scale(105)">
    <stop offset="0" stop-color="#FFF7E6"/>
    <stop offset="0.35" stop-color="#E7B46B"/>
    <stop offset="0.68" stop-color="#8E3BAF"/>
    <stop offset="1" stop-color="#201226"/>
  </radialGradient>
  <linearGradient id="bodyFill" x1="55" y1="90" x2="230" y2="300" gradientUnits="userSpaceOnUse">
    <stop offset="0" stop-color="#F28C28"/>
    <stop offset="1" stop-color="#D96B0B"/>
  </linearGradient>
  <linearGradient id="goldAccent" x1="216" y1="104" x2="317" y2="144" gradientUnits="userSpaceOnUse">
    <stop offset="0" stop-color="#F8E8B3"/>
    <stop offset="1" stop-color="#C9A227"/>
  </linearGradient>
  <linearGradient id="purpleSweep" x1="145" y1="245" x2="285" y2="307" gradientUnits="userSpaceOnUse">
    <stop offset="0" stop-color="#5F2A8A"/>
    <stop offset="1" stop-color="#2B0E45"/>
  </linearGradient>
  <filter id="softShadow" x="-20%" y="-20%" width="140%" height="140%">
    <feDropShadow dx="0" dy="10" stdDeviation="10" flood-color="#000000" flood-opacity="0.16"/>
  </filter>
</defs>


    <g transform="translate(14 14) scale(0.93)">
      <rect x="26" y="161" width="76" height="78" rx="22" fill="#F28C28"/>
      <path d="M83 131
               C124 92 183 84 233 100
               C258 108 278 123 291 141
               L291 259
               C278 277 258 292 233 300
               C183 316 124 308 83 269
               L83 131 Z"
            fill="url(#bodyFill)"/>
      <path d="M83 131
               C124 92 183 84 233 100
               C258 108 278 123 291 141"
            stroke="rgba(255,255,255,0.06)" stroke-width="6" stroke-linecap="round" opacity="0.18"/>
      
        <path d="M145 274 C173 301 216 318 263 314 C223 337 172 335 126 307 C103 293 84 274 69 250 C93 255 119 263 145 274 Z" fill="url(#purpleSweep)" opacity="0.95"/>
        <path d="M188 109 C223 92 267 91 302 109 C270 107 238 117 210 137 C204 129 197 119 188 109 Z" fill="url(#goldAccent)" opacity="0.95"/>
        <circle cx="255" cy="200" r="93" fill="url(#outerRing)"/>
        <circle cx="255" cy="200" r="65" fill="url(#lensGlass)"/>
        <circle cx="285" cy="161" r="16" fill="#FFFFFF" opacity="0.94"/>
        <ellipse cx="256" cy="203" rx="22" ry="22" fill="#25132C" opacity="0.30"/>
        <circle cx="255" cy="200" r="93" stroke="rgba(0,0,0,0.08)" stroke-width="2"/>
        
    </g>
    
</svg>
