<svg xmlns="http://www.w3.org/2000/svg" viewBox="0 0 1600 500" fill="none" role="img" aria-label="Monocular logo">

<defs>
  <linearGradient id="outerRing" x1="166" y1="122" x2="344" y2="282" gradientUnits="userSpaceOnUse">
    <stop offset="0" stop-color="#C9A227"/>
    <stop offset="0.42" stop-color="#F28C28"/>
    <stop offset="1" stop-color="#D96B0B"/>
  </linearGradient>
  <radialGradient id="lensGlass" cx="0" cy="0" r="1" gradientUnits="userSpaceOnUse"
      gradientTransform="translate(257 184) rotate(115) scale(105)">
    <stop offset="0" stop-color="#FFF7E6"/>
    <stop offset="0.35" stop-color="#E7B46B"/>
    <stop offset="0.68" stop-color="#8E3BAF"/>
    <stop offset="1" stop-color="#201226"/>
  </radialGradient>
  <linearGradient id="bodyFill" x1="55" y1="90" x2="230" y2="300" gradientUnits="userSpaceOnUse">
    <stop offset="0" stop-color="#F28C28"/>
    <stop offset="1" stop-color="#D96B0B"/>
  </linearGradient>
  <linearGradient id="goldAccent" x1="216" y1="104" x2="317" y2="144" gradientUnits="userSpaceOnUse">
    <stop offset="0" stop-color="#F8E8B3"/>
    <stop offset="1" stop-color="#C9A227"/>
  </linearGradient>
  <linearGradient id="purpleSweep" x1="145" y1="245" x2="285" y2="307" gradientUnits="userSpaceOnUse">
    <stop offset="0" stop-color="#5F2A8A"/>
    <stop offset="1" stop-color="#2B0E45"/>
  </linearGradient>
  <filter id="softShadow" x="-20%" y="-20%" width="140%" height="140%">
    <feDropShadow dx="0" dy="10" stdDeviation="10" flood-color="#000000" flood-opacity="0.16"/>
  </filter>
</defs>


    
    <g transform="translate(95 64) scale(0.93)">
      <rect x="26" y="161" width="76" height="78" rx="22" fill="#0B0B0D"/>
      <path d="M83 131
               C124 92 183 84 233 100
               C258 108 278 123 291 141
               L291 259
               C278 277 258 292 233 300
               C183 316 124 308 83 269
               L83 131 Z"
            fill="#0B0B0D"/>
      <path d="M83 131
               C124 92 183 84 233 100
               C258 108 278 123 291 141"
            stroke="#0B0B0D" stroke-width="6" stroke-linecap="round" opacity="0.18"/>
      
        <circle cx="255" cy="200" r="93" fill="#0B0B0D"/>
        <circle cx="255" cy="200" r="66" fill="none" stroke="#0B0B0D" stroke-width="16" opacity="0.85"/>
        <circle cx="255" cy="200" r="26" fill="#0B0B0D" opacity="0.18"/>
        <path d="M147 272 C176 298 218 313 261 313" stroke="#0B0B0D" stroke-width="18" stroke-linecap="round" opacity="0.85"/>
        <path d="M196 112 C229 98 267 98 296 110" stroke="#0B0B0D" stroke-width="14" stroke-linecap="round" opacity="0.85"/>
        
    </g>
    
    
    <text x="470" y="286" fill="#0B0B0D" font-family="Inter, Avenir Next, Segoe UI, Helvetica, Arial, sans-serif"
      font-size="156" font-weight="740" letter-spacing="-1px">Monocular</text>
    
    
</svg>
