<?xml version="1.0" encoding="utf-8" ?><svg xmlns="http://www.w3.org/2000/svg" xmlns:xlink="http://www.w3.org/1999/xlink" width="1024" height="1024" viewBox="0 0 1024 1024"><path fill="#F97316" d="M511.623 77.7253C512.764 77.9453 512.616 79.5352 512.984 80.7963C513.423 93.9609 513.713 107.13 513.854 120.301L514.564 186.934C514.684 197.201 514.441 211.032 515.056 220.997C522.772 221.355 532.143 221.64 539.699 222.518C611.414 230.464 677.694 264.533 725.894 318.225C764.321 360.302 789.52 412.754 798.354 469.048C799.717 477.739 800.677 486.489 801.229 495.27C801.504 499.423 801.497 504.344 801.919 508.36C814.145 508.369 826.371 508.47 838.596 508.663C842.774 508.715 852.3 508.548 855.919 508.947C868.718 510.355 945.968 509.245 951.403 512.002C917.175 513.048 882.937 513.709 848.695 513.985L818.582 514.188C813.89 514.218 806.439 514.065 802.061 514.494C800.565 650.199 698.378 772.366 564.942 797.45C548.374 800.565 531.791 801.715 514.984 802.35C514.984 824.362 514.721 846.373 514.194 868.378C513.957 885.173 514.062 901.873 513.382 918.657C512.521 919.478 512.279 924.49 512.256 925.75C512.236 927.334 512.245 928.919 512.284 930.503C512.29 930.873 512.305 930.726 512.113 931.098L512.13 931.539L512.071 931.597C511.899 931.568 511.982 931.605 511.833 931.462C511.291 927.027 512.482 927.012 510.904 921.886C510.324 918.165 510.471 910.81 510.441 906.838L510.217 881.983C509.923 855.101 509.18 829.193 509.329 802.247C438.477 801.245 370.525 773.959 318.656 725.684C275.514 685.33 245.459 636.868 231.405 579.396C228.798 568.735 226.165 558.474 224.859 547.532C223.555 536.611 223.403 525.465 223.034 514.469C210.225 513.454 189.624 514.09 176.15 513.943C144.389 513.72 112.631 513.094 80.8855 512.067L82.2449 510.871C86.0837 510.327 90.1395 510.581 93.9403 510.133C125.039 506.473 156.436 509.467 187.681 508.572C199.299 508.239 211.232 508.374 222.924 508.238C225.162 434.816 251.729 367.898 302.311 314.205C355.912 256.661 430.38 223.058 508.992 220.941C509.546 209.697 509.36 197.095 509.466 185.75C509.642 164.727 509.999 143.707 510.537 122.69C510.239 108.643 510.773 91.8773 511.623 77.7253ZM515.588 293.216C515.37 299.295 515.484 306.14 515.535 312.258C512.473 312.719 511.217 312.591 508.201 312.417C508.174 309.875 508.467 307.863 508.458 305.223L508.57 229.157C436.711 229.442 363.638 262.89 313.294 313.641C267.91 358.7 239.363 417.969 232.423 481.544C231.745 487.961 230.458 499.258 230.469 505.42C230.471 506.295 230.489 507.169 230.522 508.043C250.889 508.055 271.919 508.336 292.234 507.847C293.357 449.959 317.308 394.859 358.87 354.549C391.357 322.917 432.652 301.849 477.33 294.112C483.444 293.097 500.094 290.266 505.088 292.13C506.399 294.07 505.927 305.394 506.129 308.633C506.258 309.906 506.26 311.031 506.327 312.306C490.087 313.804 478.31 315.08 462.31 319.318C422.605 330.245 387.14 352.938 360.581 384.41C330.877 419.693 314.213 464.12 313.385 510.235C313.044 511.838 312.948 512.417 312.845 514.043C313.877 515.705 313.711 523.727 313.878 526.295C319.933 619.05 396.116 697.629 487.82 709.415C492.527 710.02 500.95 710.196 505.481 711.755C506.364 714.556 506.266 728.318 506.184 731.941C498.378 732.222 491.71 731.353 483.995 730.439C438.826 725.087 395.885 703.452 362.71 672.608C319.538 632.925 294.175 577.521 292.351 518.911C292.3 517.459 292.257 516.008 292.223 514.556C273.339 514.094 249.403 514.047 230.534 514.545C232.721 595.043 263.754 664.109 322.465 719.283C364.25 758.551 419.166 784.338 475.89 792.258C487.204 793.838 497.087 794.212 508.491 794.729C509.182 784.539 508.821 770.269 508.718 759.861C508.504 743.583 508.457 727.302 508.577 711.023C510.784 711.008 513.522 710.888 515.662 710.992C515.571 715.216 515.219 730.682 515.658 733.941C514.879 752.592 515.552 775.776 515.572 794.773C538.211 794.774 560.391 791.412 582.244 785.602C703.093 753.472 793.821 640.32 794.102 514.541C787.439 514.097 777.608 514.383 770.761 514.387C758.352 514.338 745.942 514.398 733.534 514.568C733.367 534.819 730.584 552.51 724.818 571.834C712.185 614.856 686.918 653.09 652.293 681.577C620.726 708.057 582.3 725.048 541.47 730.58C536.733 731.192 525.015 732.615 520.473 732.214C520.543 730.257 520.535 728.577 520.516 726.619C520.624 721.737 520.276 715.124 520.735 710.542C525.166 710.574 530.039 710.32 534.424 709.831C620.31 700.258 694.201 631.095 709.363 546.004C711.267 535.323 713.106 525.385 711.952 514.389C712.035 512.569 712.067 512.077 712.467 510.304C717.265 511.409 721.877 511.606 726.462 513.315C727.635 513.754 731.964 514.162 732.892 513.281C733.034 511.493 733.654 509.515 731.771 509.556C725.742 509.688 718.369 509.087 712.454 509.918C712.578 501.231 711.8 493.078 710.605 484.515C698.485 397.689 625.988 326.291 539.308 314.284C533.152 313.432 526.803 313.459 520.5 312.506C520.528 305.333 520.609 298.161 520.743 290.99C575.712 295.363 621.701 312.816 662.493 350.521C708.509 393.054 730.517 446.337 733.542 508.017L771.679 508.039C778.464 508.049 787.774 507.857 794.372 508.334C794.417 507.46 794.437 506.585 794.433 505.71C793.345 431.859 759.396 359.712 706.553 308.683C663.533 267.373 608.698 240.513 549.688 231.846C539.258 230.347 526.024 228.968 515.465 229.154C515.7 250.425 515.142 271.993 515.588 293.216ZM308.728 510.923C304.746 509.775 299.388 510.008 295.046 509.889C296.952 513.211 296.803 512.501 300.736 511.928C304.014 511.451 305.43 512.092 308.728 510.923Z"/><path fill="#E78C63" d="M511.623 77.7253C512.764 77.9453 512.616 79.5352 512.984 80.7963C513.423 93.9609 513.713 107.13 513.854 120.301C512.692 116.218 512.536 115.709 512.753 111.391C512.803 110.397 512.225 100.127 512.062 99.8238L511.936 99.8107C510.542 106.359 512.778 114.531 510.537 122.69C510.239 108.643 510.773 91.8773 511.623 77.7253Z"/><path fill="#F97316" d="M650.201 505.731C668.01 506.106 685.825 506.034 703.631 505.516C703.944 508.61 704.161 513.126 703.623 516.179L702.625 516.505C684.738 516.47 666.043 516.762 648.229 516.358C648.064 513.887 647.458 508.653 648.504 506.438C648.816 505.779 649.244 505.927 650.201 505.731Z"/><path fill="#F97316" d="M319.608 506.009C338.062 506.101 357.275 506.557 375.646 506.11C376.034 510.064 375.956 512.956 375.688 516.88C358.794 517.457 337.258 516.443 319.755 516.563C319.478 513.348 319.596 509.302 319.608 506.009Z"/><path fill="#F97316" d="M508.627 320.725L518.421 320.574C517.357 334.273 517.626 347.766 517.757 361.485C517.795 365.515 518.026 369.752 517.376 373.724C513.716 373.893 511.518 373.766 507.85 373.502C507.591 361.608 507.644 349.536 507.484 337.629C507.443 334.634 507.198 323.3 507.611 321.059L508.627 320.725Z"/><path fill="#F97316" d="M507.52 651.584C510.783 651.246 514.221 651.412 517.512 651.472C517.887 657.136 517.62 665.694 517.625 671.542L517.802 704.526L507.482 704.146C507.694 686.626 507.707 669.104 507.52 651.584Z"/><path fill="#FEFEFE" fill-opacity="0.4509804" d="M508.577 711.023C510.806 709.724 518.016 703.38 517.063 708.493C516.891 709.421 519.264 709.393 520.735 710.542C520.276 715.124 520.624 721.737 520.516 726.619C516.164 726.87 516.131 724.566 515.908 720.626C517.26 720.754 520.305 722.475 518.653 717.301C518.298 716.19 516.97 715.373 515.82 716.733C515.939 714.316 515.863 713.349 515.662 710.992C513.522 710.888 510.784 711.008 508.577 711.023Z"/><path fill="#FEFEFE" d="M292.69 514.213C292.699 511.066 291.962 510.099 295.046 509.889C296.952 513.211 296.803 512.501 300.736 511.928C304.014 511.451 305.43 512.092 308.728 510.923C309.46 509.616 311.861 510.231 313.385 510.235C313.044 511.838 312.948 512.417 312.845 514.043C309.768 514.52 296.579 514.246 292.69 514.213Z"/><defs><linearGradient id="gradient_0" gradientUnits="userSpaceOnUse" x1="726.65784" y1="506.87405" x2="719.3562" y2="514.61108"><stop offset="0" stop-color="white" stop-opacity="0"/><stop offset="1" stop-color="white" stop-opacity="0.047058824"/></linearGradient></defs><path fill="url(#gradient_0)" d="M712.454 509.918C718.369 509.087 725.742 509.688 731.771 509.556C733.654 509.515 733.034 511.493 732.892 513.281C731.964 514.162 727.635 513.754 726.462 513.315C721.877 511.606 717.265 511.409 712.467 510.304L712.454 509.918Z"/><path fill="#FEFEFE" fill-opacity="0.94509804" d="M515.662 710.992C515.863 713.349 515.939 714.316 515.82 716.733L515.908 720.626C516.131 724.566 516.164 726.87 520.516 726.619C520.535 728.577 520.543 730.257 520.473 732.214C517.759 732.499 518.166 732.766 515.658 733.941C515.219 730.682 515.571 715.216 515.662 710.992Z"/><path fill="#FEFEFE" d="M712.467 510.304C717.265 511.409 721.877 511.606 726.462 513.315C724.143 514.819 715.283 514.385 711.952 514.389C712.035 512.569 712.067 512.077 712.467 510.304Z"/><path fill="#FEFEFE" fill-opacity="0.082352944" d="M515.588 293.216C516.672 297.983 515.754 304.085 516.033 309.043C516.18 311.65 518.713 308.371 519.938 308.583C520.47 309.064 520.368 311.86 519.987 311.981C518.682 312.396 517.147 312.075 515.535 312.258C515.484 306.14 515.37 299.295 515.588 293.216Z"/><path fill="#FEFEFE" fill-opacity="0.031372551" d="M295.046 509.889C299.388 510.008 304.746 509.775 308.728 510.923C305.43 512.092 304.014 511.451 300.736 511.928C296.803 512.501 296.952 513.211 295.046 509.889Z"/><path fill="#FEFEFE" fill-opacity="0.39215687" d="M515.82 716.733C516.97 715.373 518.298 716.19 518.653 717.301C520.305 722.475 517.26 720.754 515.908 720.626L515.82 716.733Z"/><path fill="#FEFEFE" fill-opacity="0.32156864" d="M506.129 308.633C508.038 310.312 508.168 306.43 508.458 305.223C508.467 307.863 508.174 309.875 508.201 312.417C507.374 312.309 507.204 312.319 506.327 312.306C506.26 311.031 506.258 309.906 506.129 308.633Z"/><path fill="#E78C63" fill-opacity="0.92941177" d="M855.919 508.947C877.438 506.817 902.311 508.74 923.97 508.835C933.907 508.878 944.489 510.862 954.797 510.868L955.85 512.15L951.403 512.002C945.968 509.245 868.718 510.355 855.919 508.947Z"/><path fill="#E78C63" fill-opacity="0.97647059" d="M510.904 921.886C512.482 927.012 511.291 927.027 511.833 931.462C511.982 931.605 511.899 931.568 512.071 931.597L512.13 931.539L512.113 931.098C512.305 930.726 512.29 930.873 512.284 930.503C512.245 928.919 512.236 927.334 512.256 925.75C512.279 924.49 512.521 919.478 513.382 918.657C513.691 924.776 512.618 939.058 512.411 945.942C510.955 942.85 511.862 941.549 511.085 937.726C510.946 932.639 510.926 926.993 510.904 921.886Z"/><path fill="#E8A486" fill-opacity="0.89019608" d="M76.2763 511.078C78.2565 510.973 80.2575 510.948 82.2449 510.871L80.8855 512.067C76.5844 512.039 72.2835 511.989 67.9829 511.915C69.391 511.7 70.0134 511.635 71.4367 511.586C73.7232 511.568 74.0738 511.54 76.2763 511.078Z"/><path fill="#E8A486" fill-opacity="0.90980393" d="M511.623 77.7253C511.657 75.2677 511.979 73.5667 512.501 71.2058C512.842 74.992 513.008 76.9772 512.984 80.7963C512.616 79.5352 512.764 77.9453 511.623 77.7253Z"/><path fill="#E8A486" fill-opacity="0.58431375" d="M511.085 937.726C511.862 941.549 510.955 942.85 512.411 945.942C512.427 946.653 512.569 949.261 511.886 949.641C511.828 949.569 511.77 949.498 511.712 949.427C511.881 948.096 512.213 947.652 511.491 946.52C510.964 943.486 510.997 940.805 511.085 937.726Z"/><path fill="#FEFEFE" fill-opacity="0.44313726" d="M67.9829 511.915C67.7581 511.878 67.3499 511.861 67.2351 511.721L67.2649 511.612C68.1248 510.93 70.3061 511.002 71.3267 511.018L71.4367 511.586C70.0134 511.635 69.391 511.7 67.9829 511.915Z"/><path fill="#EBC8B8" fill-opacity="0.63529414" d="M71.3267 511.018C73.0582 511 74.5431 511.024 76.2763 511.078C74.0738 511.54 73.7232 511.568 71.4367 511.586L71.3267 511.018Z"/><path fill="#E8A486" fill-opacity="0.58823532" d="M954.797 510.868C956.197 510.983 959.117 511.331 955.85 512.15L954.797 510.868Z"/><path fill="#E8A486" fill-opacity="0.97647059" d="M511.491 946.52C512.213 947.652 511.881 948.096 511.712 949.427C511.571 948.272 511.477 947.685 511.491 946.52Z"/></svg>