<?xml version="1.0" encoding="utf-8" ?><svg xmlns="http://www.w3.org/2000/svg" xmlns:xlink="http://www.w3.org/1999/xlink" width="1536" height="768" viewBox="102 217 1356 335"><path fill="#103544" d="M424.016 306.877C436.032 306.471 449.714 306.772 461.858 306.756C466.635 319.292 471.183 333.67 475.648 346.469L505.349 430.903C506.719 427.823 507.698 424.834 508.862 421.698C522.964 383.693 535.196 344.798 549.375 306.859C561.603 306.57 574.663 306.795 586.955 306.792C586.137 326.145 586.605 348.159 586.564 367.726C586.4 398.643 586.484 429.561 586.816 460.476C577.911 460.525 568.726 460.328 559.797 460.245L559.627 408.469C559.573 391.779 558.664 377.018 562.021 360.564C563.47 353.425 565.325 345.404 565.828 338.215C561.145 347.043 554.288 367.421 550.319 377.471C539.637 404.518 530.213 432.933 519.512 459.884C510.529 460.417 500.964 460.269 491.926 460.289C488.221 452.111 483.461 438.104 480.185 429.385L457.161 367.547C454.232 359.592 447.636 339.858 443.999 333.812C446.255 345.488 449.582 360.458 450.591 371.979C451.299 380.052 450.961 393.056 450.97 401.517C450.844 421.161 450.952 440.805 451.295 460.446L423.932 460.35C424.499 409.297 423.408 357.815 424.016 306.877Z"/><path fill="#103544" d="M1337.3 433.368C1337.14 434.122 1336.95 434.869 1336.73 435.611C1329.26 461.564 1306.02 467.829 1282.27 460.937C1250.14 451.615 1236.83 412.612 1246.55 382.482C1251.27 367.851 1261.56 355.671 1275.21 348.585C1287.19 342.5 1302.3 340.94 1315.18 345.148C1326.1 348.715 1330.74 356.235 1335.5 365.837C1336.37 369.791 1337.25 371.366 1339.18 374.766C1338.52 371.173 1337.76 366.623 1336.93 363.058C1336.16 356.664 1334.94 351.948 1333.38 345.666C1342 344.839 1352.72 345.138 1361.52 345.151C1361.55 383.012 1362.17 422.596 1361.42 460.342C1352.36 460.298 1342.29 460.476 1333.31 460.187C1335.54 452.104 1337.26 443.892 1338.47 435.597C1338.6 435.096 1339.24 431.945 1338.47 431.685C1337.85 431.844 1337.56 432.873 1337.3 433.368ZM1307.04 438.319C1351.31 430.635 1343.7 364.71 1299.72 367.635C1288.97 370.309 1280.99 373.955 1274.98 384.057C1269.82 392.808 1268.43 403.273 1271.12 413.069C1275.75 430.129 1289.84 438.961 1307.04 438.319Z"/><path fill="#103544" d="M894.883 342.646C928.186 340.334 957.066 365.436 959.415 398.735C961.764 432.035 936.694 460.943 903.398 463.329C870.048 465.72 841.084 440.602 838.731 407.249C836.378 373.897 861.528 344.961 894.883 342.646ZM904.057 437.531C923.239 434.589 936.373 416.611 933.343 397.442C930.314 378.273 912.276 365.222 893.121 368.339C874.089 371.436 861.14 389.332 864.15 408.378C867.16 427.423 884.998 440.454 904.057 437.531Z"/><path fill="#103544" d="M652.79 342.789C686.037 340.598 714.787 365.725 717.068 398.966C719.35 432.207 694.301 461.025 661.067 463.397C627.703 465.778 598.749 440.612 596.459 407.243C594.169 373.873 619.414 344.988 652.79 342.789ZM661.072 437.623C680.074 434.947 693.382 417.476 690.914 398.446C688.446 379.416 671.123 365.918 652.067 368.176C639.553 369.659 628.8 377.752 623.913 389.367C619.025 400.983 620.755 414.329 628.444 424.314C636.133 434.298 648.594 439.381 661.072 437.623Z"/><path fill="#F97316" d="M330.873 381.446C331.432 381.668 331.724 381.823 332.255 382.094C333.774 383.125 335.304 384.139 336.846 385.135C339.222 385.264 340.961 385.179 343.266 384.471C345.646 386.184 347.45 385.921 350.373 385.68C349.287 399.863 348.019 411.342 342.843 424.693C324.173 472.843 283.714 497.892 233.692 501.985C233.645 509.038 233.976 534.66 233.044 540.694L231.707 541.503C230.784 541.073 229.691 540.795 229.622 539.594C228.965 528.004 229.612 513.33 229.263 502.011C211.486 500.078 197.944 498.353 181.401 490.575C138.808 470.55 115.017 431.99 111.985 385.691C115.14 385.991 117.742 386.31 120.255 384.41C122.288 385.203 124.416 384.976 126.504 384.426C129.092 386.377 131.85 385.959 135.105 385.662C136.789 413.408 146.61 435.481 167.355 454.612C182.007 468.124 208.08 479.275 228.25 478.14C228.601 478.122 228.951 478.097 229.301 478.066C229.343 472.468 228.939 438.098 230.2 436.234L231.566 435.712L232.697 436.373C234.109 445.37 233.097 467.842 233.559 478.494C260.216 478.153 282.035 467.86 301.003 448.774C316.554 433.126 326.48 409.441 327.633 387.23C327.655 386.801 327.517 385.805 327.442 385.346C328.027 381.848 327.155 381.618 330.873 381.446ZM230.586 499.935C231.006 499.849 233.203 499.54 233.198 499.011C233.152 494.162 234.108 483.185 232.684 478.986C231.981 479.362 229.617 480.265 229.596 481.075C229.476 485.775 228.334 495.914 230.586 499.935Z"/><path fill="#F5F5F5" d="M330.873 381.446C331.432 381.668 331.724 381.823 332.255 382.094C333.774 383.125 335.304 384.139 336.846 385.135C333.42 385.437 330.825 385.313 327.442 385.346C328.027 381.848 327.155 381.618 330.873 381.446Z"/><path fill="#F97316" d="M229.025 264.976C229.307 258.324 228.494 229.14 230.737 226.589L232.431 226.824C233.695 229.003 233.504 260.355 233.69 265.302C257.761 266.697 277.107 272.506 297.638 285.654C328.858 305.648 350.876 343.084 350.264 380.771C347.774 381.503 348.448 380.945 347.148 382.656C343.49 381.002 336.325 381.713 332.255 382.094C331.724 381.823 331.432 381.668 330.873 381.446C330.195 381.119 328.777 380.688 328.005 380.425C325.172 356.355 318.642 336.744 301.661 318.691C283.97 299.856 259.457 288.914 233.624 288.321C233.588 293.414 234.105 328.51 232.792 331.528C230.607 331.617 231.428 331.846 229.644 330.749C228.716 321.214 229.178 298.788 229.16 288.597C199.171 288.086 170.722 304.102 153.24 328C141.198 344.461 136.798 361.114 134.67 381.006L132.452 382.752C132.425 382.569 132.398 382.386 132.371 382.203C131.176 381.031 117.888 381.625 115.652 382.607C114.068 380.48 114.909 380.977 112.575 380.557C111.238 355.693 124.934 324.285 141.686 306.16C167.691 278.026 192.275 268.985 229.025 264.976ZM230.496 288.924C231.119 288.604 233.206 287.697 233.235 287.131C233.464 282.699 233.868 270.517 232.915 266.76C232.14 267.224 229.585 268.344 229.586 269.227C229.588 274.675 228.48 284.046 230.496 288.924Z"/><path fill="#103544" d="M779.936 343.032C782.038 342.875 784.144 342.777 786.252 342.737C797.756 342.606 809.278 345.753 817.549 354.106C834.825 371.553 832.467 397.87 832.384 420.371L832.326 460.337L806.774 460.462C806.497 438.9 807.375 417.173 806.5 395.631C805.368 367.751 778.489 358.126 758.049 376.218C747.076 390.621 749.368 406.556 749.54 423.671C749.721 435.944 749.762 448.218 749.663 460.492L723.588 460.462C724.588 423.901 723.97 382.368 723.566 345.67C731.671 344.768 744.464 345.051 752.672 345.374C749.697 354.711 748.225 362.055 746.952 371.758C754.446 354.119 758.829 345.551 779.936 343.032Z"/><path fill="#103544" d="M1172.41 345.398C1179.69 345.129 1191.07 344.858 1198.43 345.427C1198.45 383.088 1199.13 422.832 1198.41 460.357L1170.45 460.317C1172.25 453.97 1173.61 448.635 1175 442.186C1174.88 439.592 1174.81 434.981 1172.29 440.435C1161.53 472.667 1108.77 469.735 1096.49 439.864C1088.75 421.029 1090.42 403.88 1090.38 384.061L1090.31 345.575C1097.14 344.99 1108.78 345.102 1115.87 345.488L1115.86 387.807C1115.82 408.507 1112.76 438.096 1142.03 439.641C1149.48 440.035 1157.71 436.778 1162.86 431.405C1170.26 423.684 1172.45 413.29 1172.58 402.947C1172.82 384.449 1173 365.928 1172.47 347.431L1172.41 345.398Z"/><path fill="#103544" d="M1018.17 343.045C1047.19 338.93 1070.44 357.046 1081.3 382.779C1074.16 385.1 1063.46 387.595 1055.96 389.569C1052.6 383.003 1049.77 378.634 1043.7 374.088C1036.3 368.486 1026.94 366.127 1017.77 367.55C1009.09 368.835 1001.31 373.575 996.179 380.691C980.379 402.722 992.384 438.156 1021.85 438.584C1036.97 438.804 1045.09 433.789 1053.13 421.413L1056.19 414.506C1065.1 415.208 1074.24 416.458 1083.09 417.694C1080.49 426.035 1076.31 433.799 1070.78 440.563C1068.02 443.934 1065.04 446.916 1061.78 449.73C1032.65 474.908 980.214 464.59 968.072 425.945C955.364 385.501 973.603 347.052 1018.17 343.045Z"/><path fill="#103544" d="M1211.16 307.05C1218.33 306.638 1229.12 306.93 1236.55 306.931C1236.01 324.651 1236.36 343.908 1236.37 361.757L1236.39 460.374L1210.3 460.217C1209.94 423.559 1209.92 386.899 1210.24 350.241C1210.29 344.54 1209.58 309.156 1211.16 307.05Z"/><path fill="#103544" d="M1397.88 368.895C1399.23 367.658 1403.33 360.144 1405.09 357.645C1412.13 347.646 1418.22 345.033 1429.66 343.005C1422.86 353.457 1421.35 358.535 1423.73 370.739C1399.09 373.183 1399.61 396.797 1399.68 415.729C1399.73 430.059 1399.63 444.475 1399.62 458.812C1399.5 459.806 1399.61 459.321 1398.74 460.254C1391.32 460.836 1381.08 460.396 1373.45 460.281L1373.53 345.441C1381.86 344.999 1394.27 344.8 1402.54 345.57C1400.96 351.293 1397.15 363.576 1397.88 368.895Z"/><path fill="#F5F5F5" d="M1397.88 368.895C1398.17 368.916 1398.46 368.937 1398.75 368.958C1399.26 369.509 1398.14 373.174 1397.95 373.988C1397.56 375.752 1397.08 377.496 1396.51 379.212C1394.75 377.28 1396.36 370.771 1397.88 368.895Z"/><path fill="#F97316" d="M1448.38 339.91C1460.08 339.213 1470.12 348.133 1470.8 359.826C1471.49 371.519 1462.56 381.552 1450.87 382.228C1439.19 382.903 1429.17 373.988 1428.48 362.31C1427.8 350.631 1436.7 340.606 1448.38 339.91Z"/><path fill="#FE8318" d="M347.148 382.656C348.448 380.945 347.774 381.503 350.264 380.771L350.983 380.849C358.159 381.583 385.55 380.002 388.814 382.555C387.102 387.156 357.185 385.098 350.373 385.68C347.45 385.921 345.646 386.184 343.266 384.471L347.148 382.656Z"/><path fill="#FE8318" d="M111.985 385.691C104.57 383.034 76.3245 388.583 74.3316 382.969C74.6767 382.557 75.0836 382.071 75.5522 381.512C84.8272 380.346 103.288 382.182 111.956 380.67L112.575 380.557C114.909 380.977 114.068 380.48 115.652 382.607C117.178 383.229 118.712 383.831 120.255 384.41C117.742 386.31 115.14 385.991 111.985 385.691Z"/><path fill="#FE8318" d="M134.67 381.006C142.748 381.313 168.418 380.007 173.214 382.631L173.66 383.688L172.995 384.605C161.356 385.549 145.667 384.221 135.105 385.662C131.85 385.959 129.092 386.377 126.504 384.426C128.628 383.896 130.363 383.417 132.452 382.752L134.67 381.006Z"/><path fill="#FE8318" d="M328.005 380.425C328.777 380.688 330.195 381.119 330.873 381.446C327.155 381.618 328.027 381.848 327.442 385.346C314.711 384.677 302.091 385.384 289.395 384.799C289.395 384.799 288.124 383.733 287.998 383.627L287.991 382.168C290.759 380.002 319.872 381.923 327.358 380.55L328.005 380.425Z"/><path fill="#F5F5F5" fill-opacity="0.015686275" d="M332.255 382.094C336.325 381.713 343.49 381.002 347.148 382.656L343.266 384.471C340.961 385.179 339.222 385.264 336.846 385.135C335.304 384.139 333.774 383.125 332.255 382.094Z"/><path fill="#F5F5F5" fill-opacity="0.015686275" d="M1336.93 363.058C1337.76 366.623 1338.52 371.173 1339.18 374.766C1337.25 371.366 1336.37 369.791 1335.5 365.837C1336.22 364.689 1336.45 364.327 1336.93 363.058Z"/><path fill="#F5F5F5" fill-opacity="0.031372551" d="M1172.29 440.435C1174.81 434.981 1174.88 439.592 1175 442.186C1174.09 441.617 1173.18 441.033 1172.29 440.435Z"/><path fill="#C0C5CA" fill-opacity="0.28627452" d="M1337.3 433.368C1337.56 432.873 1337.85 431.844 1338.47 431.685C1339.24 431.945 1338.6 435.096 1338.47 435.597C1338.07 434.882 1337.68 434.101 1337.3 433.368Z"/></svg>