<?xml version="1.0" encoding="utf-8" ?><svg xmlns="http://www.w3.org/2000/svg" xmlns:xlink="http://www.w3.org/1999/xlink" width="1536" height="768" viewBox="0 0 1536 768"><path fill="#F97316" d="M296.1 210.17C297.617 210.282 298.137 210.488 299.605 210.933C300.917 213.835 300.014 243.364 299.926 248.849C376.006 253.869 429.854 303.815 432.581 381.155C439.394 381.933 469.935 379.863 472.73 383.028L472.315 384.653C470.303 385.608 437.564 385.204 432.75 385.211L433.018 389.919C434.557 417.523 417.76 452.368 399.166 472.323C370.307 503.294 341.192 516.18 299.835 518.441C299.942 519.342 300.03 520.246 300.097 521.15C300.658 529.097 300.302 547.485 299.651 556.121C299.114 556.745 298.656 557.277 298.276 557.718C293.027 554.637 297.072 528.09 295.694 521.446C294.877 517.509 290.567 517.807 287.213 517.567C261.875 515.899 237.589 506.811 217.38 491.438C191.03 471.714 174.031 444.026 166.214 412.239C165.463 409.186 164.023 387.115 162.753 386.348C156.7 382.695 128.577 387.687 123.714 384.439L123.546 382.563C127.6 379.256 158.668 383.854 162.588 380.233C164.317 378.636 164.43 362.268 165.344 357.84C169.994 335.325 179.877 314.89 194.569 297.157C213.289 274.773 238.799 259.106 267.229 252.533C276.523 250.467 286.704 249.596 296.236 248.683C295.524 241.644 295.374 216.836 296.1 210.17ZM236.293 378.218L236.263 388.481C229.667 388.502 212.075 387.527 207.57 390.1C205.918 392.77 207.772 398.135 208.333 401.223C216.089 443.901 251.205 473.537 293.773 476.507C293.86 468.338 294.238 454.297 293.385 446.538C294.997 443.106 299.506 443.137 302.387 444.736C304.684 448.657 301.943 469.371 302.211 475.734L303.962 475.901C328.296 474.343 351.001 463.128 367.028 444.751C378.286 431.866 385.797 416.002 388.353 399.08C388.807 396.071 390.518 392.585 389.791 389.752C386.601 387.412 365.684 388.708 360.256 388.745C360.185 385.171 360.07 381.523 360.053 377.956C365.043 377.904 387.192 378.839 389.751 376.829C390.154 372.953 387.89 370.508 387.516 367.24C382.715 325.257 344.319 293.175 303.091 291.678C303.1 296.176 303.905 319.146 302.275 321.562C299.547 324.012 296.401 324.619 293.598 322.097C291.769 313.839 295.284 297.144 292.479 291.605C290.893 290.945 290.552 291.096 288.777 291.248C238.349 299.991 214.158 328.298 205.841 377.691C214.801 379.173 226.549 377.619 236.293 378.218ZM299.794 287.431C312.479 288.094 321.366 289.41 333.243 293.734C369.026 306.758 393.457 342.732 395.047 380.24C395.09 381.276 399.531 381.481 400.274 381.55C408.529 381.394 420.895 382.38 428.833 381.185C429.789 366.538 426.303 361.521 423.434 348.941C411.203 295.304 354.478 251.934 299.783 253.336C300.631 263.77 300.101 276.785 299.794 287.431ZM286.164 253.795C250.888 257.171 220.433 273.032 197.715 300.429C179.052 323.24 168.496 351.604 167.704 381.066C173.241 381.519 176.508 381.575 182.063 381.385C185.874 381.426 199.158 382.168 201.464 380.193C202.455 372.317 202.217 369.969 204.179 361.875C208.421 344.383 215.999 329.45 228.549 316.485C241.898 302.835 258.996 293.45 277.68 289.518C283.578 288.312 290.107 287.996 295.204 286.903C294.965 276.281 295.087 265.655 295.57 255.042C292.433 252.53 290.421 253.325 286.164 253.795ZM299.995 513.83C308.262 514.011 321.907 512.649 329.769 510.277C366.107 499.709 392.446 480.029 411.982 446.771C419.548 433.89 430.113 401.429 427.25 386.628C424.025 384.348 399.201 385.208 393.798 385.36C394.224 386.682 395.7 391.341 395.46 392.45C392.905 404.23 389.937 416.17 384.511 426.711C372.608 450.162 351.798 467.861 326.74 475.845C316.726 479.036 310.327 479.694 300.027 480.062C300.403 491.096 300.114 502.738 299.995 513.83ZM171.088 385.081L168.878 385.451C166.494 388.984 169.222 401.447 169.891 405.556C178.969 461.308 226.48 507.327 282.837 513.308C286.534 513.7 291.637 514.61 295.289 514.022C297.631 510.092 295.101 487.394 296.37 480.351C290.143 479.452 284.094 479.187 278.054 477.93C255.564 473.403 235.513 460.791 221.693 442.479C213.389 431.418 198.628 400.344 201.832 386.721C200.034 383.983 176.179 385.247 171.088 385.081Z"/><path fill="#F5F5F5" d="M608.527 312.677C615.9 312.526 622.029 312.537 629.411 312.814L629.386 449.647L611.882 449.687C611.853 423.266 612.372 395.664 611.848 369.349C612.14 364.913 612.458 359.376 612.96 354.966C612.684 353.293 612.418 351.62 612.164 349.944C611.028 352.96 609.554 356.115 608.565 359.09L581.284 422.344C577.681 430.63 573.327 441.665 569.52 449.594L553.38 449.679C539.281 416.108 524.794 382.702 509.92 349.467C510.206 374.69 509.835 399.928 510.563 425.12C510.76 431.938 510.096 443.198 510.691 449.404L493.439 449.394L493.323 312.74L513.383 312.642L548.21 395.483C550.355 400.519 558.872 423.59 561.782 425.722C565.655 420.267 568.615 410.67 571.009 404.14C582.099 373.894 598.607 343.05 608.527 312.677Z"/><path fill="#484646" d="M612.164 349.944C612.368 349.428 612.663 348.416 613.121 348.195C614.008 348.784 613.129 353.899 612.96 354.966C612.684 353.293 612.418 351.62 612.164 349.944Z"/><path fill="#F5F5F5" d="M899.308 348.38C927.518 345.169 953.025 365.344 956.397 393.535C959.769 421.726 939.74 447.348 911.568 450.882C883.168 454.443 857.293 434.216 853.893 405.796C850.494 377.376 870.869 351.616 899.308 348.38ZM910.665 436.359C953.678 428.469 945.398 357.61 900.338 362.417C868.115 367.882 861.778 412.745 886.068 431.342C893.292 436.873 901.971 437.014 910.665 436.359Z"/><path fill="#F5F5F5" d="M685.732 348.564C713.749 345.202 739.262 364.991 742.975 392.963C746.687 420.935 727.22 446.694 699.296 450.757C680.919 453.431 662.524 446.013 651.142 431.34C639.76 416.666 637.15 397.004 644.311 379.87C651.471 362.735 667.294 350.776 685.732 348.564ZM697.688 436.517C706.042 435.033 713.475 430.315 718.373 423.387C734.945 399.828 722.096 359.909 687.856 362.49C646.237 369.416 648.788 433.322 690.086 436.604C692.357 436.784 695.382 436.601 697.688 436.517Z"/><path fill="#F5F5F5" d="M1211.79 379.604C1214.31 336.26 1289.36 339.142 1293.95 374.672C1296.67 395.743 1295.16 427.343 1295.33 449.605C1289.89 449.23 1284.08 449.449 1278.57 449.446C1278.74 442.238 1278.72 437.586 1279.86 430.416L1278.41 430.121C1277.23 433.221 1276.03 434.876 1274.54 437.685C1269.46 444.472 1264.42 448.25 1255.95 450.217C1236.03 454.846 1211.56 448.618 1208.05 425.25C1203.15 393.258 1235.29 388.745 1258.79 388.553C1268.14 388.476 1281.13 387.669 1277.96 375.775C1276.26 369.404 1269.59 364.201 1263.55 363.321C1246.99 360.91 1232.15 360.779 1226.82 379.57C1222.28 379.615 1216.19 379.843 1211.79 379.604ZM1228.59 431.972C1242.32 439.837 1266.44 439.095 1275.17 424.832C1278.88 418.761 1279.12 402.3 1277.78 395.307C1259.23 410.891 1237.06 394.094 1224.05 414.879C1223.95 420.141 1224.53 428.095 1228.59 431.972ZM1222.04 374.457C1221.81 374.023 1221.92 374.132 1221.73 374.006C1221.51 374.012 1221.66 373.983 1221.24 374.179C1221.42 374.514 1221.3 374.407 1221.54 374.552C1221.71 374.52 1221.87 374.489 1222.04 374.457Z"/><path fill="#AAA4A0" d="M1278.41 430.121C1278.94 425.75 1280.75 426.104 1279.86 430.416L1278.41 430.121Z"/><path fill="#FEFAF6" fill-opacity="0.94117647" d="M1221.24 374.179C1221.66 373.983 1221.51 374.012 1221.73 374.006C1221.92 374.132 1221.81 374.023 1222.04 374.457C1221.87 374.489 1221.71 374.52 1221.54 374.552C1221.3 374.407 1221.42 374.514 1221.24 374.179Z"/><path fill="#F5F5F5" d="M799.477 348.245C810.247 346.53 824.232 349.066 832.121 356.983C845.237 370.146 842.875 391.078 842.8 408.238C842.685 422.026 842.65 435.814 842.695 449.602L825.892 449.54C825.959 434.782 828.395 386.795 823.42 375.425C821.013 369.924 816.572 365.409 810.92 363.282C802.693 360.186 793.262 362.225 785.51 365.698C774.107 371.83 770.89 384.955 770.952 397.025C771.042 414.481 771.045 431.957 771.044 449.412C765.485 449.443 759.925 449.434 754.366 449.386C753.828 416.798 754.247 382.391 754.218 349.741C759.788 349.563 765.443 349.745 771.021 349.863L771.061 368.162C778.403 355.462 784.739 350.418 799.477 348.245Z"/><path fill="#F5F5F5" d="M1070.97 349.404L1087.81 349.617C1087.98 363.873 1087.51 378.16 1087.52 392.601C1087.53 410 1083.86 433.703 1107.79 436.423C1116.93 437.544 1126.52 435.877 1133.16 429.034C1142.86 419.044 1142.11 404.433 1142.2 391.512C1142.31 377.579 1142.22 363.608 1142.08 349.665C1147.51 349.48 1153.33 349.634 1158.79 349.687L1158.86 431.194C1158.66 436.902 1158.72 443.83 1158.83 449.563C1152.68 449.708 1148.3 449.614 1142.16 449.208C1142.2 439.935 1143.24 438.691 1143.81 430.777L1142.29 430.525C1138.94 432.895 1137.23 438.67 1134.1 441.982C1127.68 448.679 1118 451.412 1108.97 451.563C1091.1 451.861 1075.96 443.416 1072.36 424.777C1070.34 414.289 1071.04 403.89 1071.03 393.273L1070.97 349.404Z"/><path fill="#F5F5F5" d="M1006.68 348.244C1026.71 344.68 1050.89 357.078 1056.63 376.865C1057.28 379.101 1058.12 379.663 1057.93 382.198C1055.07 382.99 1045.68 382.536 1042.16 382.462C1035.91 372.01 1030.41 364.166 1017.44 362.496C971.173 356.538 965.485 431.801 1009.4 436.985C1019.08 438.129 1027.66 434.804 1035.06 428.666C1040.46 422.019 1041.2 419.816 1043.82 411.722C1049.4 411.693 1055.17 411.839 1060.77 411.907C1058.95 419.764 1056.79 426.792 1051.95 433.386C1036.52 454.405 1002.39 457.107 982.021 442.068C971.069 433.983 964.813 421.304 962.973 407.965C961.13 394.611 964.258 378.123 972.485 367.165C981.377 355.728 992.576 350.143 1006.68 348.244Z"/><path fill="#F5F5F5" d="M1334.18 356.77C1343.71 346.124 1356.04 347.322 1369.12 348.329C1368.79 352.617 1367.74 358.75 1367.12 363.147C1363.83 363.046 1360.53 362.984 1357.24 362.961C1325.06 362.897 1328.11 385.683 1328.18 409.859L1328.35 449.323L1311.41 449.239C1312.16 439.992 1311.66 425.263 1311.63 415.365L1311.16 349.605L1327.68 349.583C1330.79 354.439 1326.1 352.237 1334.18 356.77Z"/><path fill="#1A1816" d="M1327.68 349.583C1330.79 354.439 1326.1 352.237 1334.18 356.77C1331.85 361.088 1330.68 362.932 1328.79 367.669L1327.19 366.902C1327.56 361.054 1327.28 355.198 1327.68 349.583Z"/><path fill="#85807E" d="M1328.79 367.669C1328.56 368.655 1327.92 372.537 1327.14 372.955L1327.03 372.886C1326.52 371.372 1326.56 368.494 1327.19 366.902L1328.79 367.669Z"/><path fill="#F5F5F5" d="M1177.4 312.834C1182.79 312.523 1188.67 312.678 1194.12 312.721L1194.1 449.697L1177.35 449.7L1177.4 312.834Z"/><path fill="#F97316" d="M1390.1 341.458C1396.24 339.972 1402.69 341.885 1407.03 346.472C1411.36 351.058 1412.9 357.614 1411.07 363.651C1409.24 369.657 1404.36 374.235 1398.24 375.663C1393.32 376.813 1388.15 375.79 1384.03 372.855C1379.92 369.92 1377.27 365.358 1376.76 360.331C1375.86 351.588 1381.56 343.528 1390.1 341.458ZM1388.98 365.369C1392.4 368.048 1397.28 367.768 1400.37 364.714C1402.15 362.956 1403.08 360.512 1402.92 358.014C1402.76 355.517 1401.52 353.212 1399.53 351.697C1396.93 349.722 1393.45 349.378 1390.52 350.807C1387.84 352.111 1386.03 354.701 1385.71 357.661C1385.4 360.621 1386.63 363.534 1388.98 365.369Z"/><path fill="#1A1816" fill-opacity="0.15294118" d="M1388.98 365.369C1386.63 363.534 1385.4 360.621 1385.71 357.661C1386.03 354.701 1387.84 352.111 1390.52 350.807C1391.56 353.701 1390.58 356.003 1393.38 355.725C1392.4 357.18 1392.21 358.695 1391.73 360.417C1389.58 361.334 1389.72 363.181 1388.98 365.369Z"/><path fill="#1A1816" fill-opacity="0.37254903" d="M1399.53 351.697C1401.52 353.212 1402.76 355.517 1402.92 358.014C1403.08 360.512 1402.15 362.956 1400.37 364.714C1398.28 360.442 1399.46 362.697 1395.95 361.127C1398.76 359.69 1397.96 358.14 1397.23 355.328C1399.61 353.743 1398.75 354.971 1399.53 351.697Z"/><path fill="#1A1816" fill-opacity="0.69803923" d="M1397.23 355.328C1397.96 358.14 1398.76 359.69 1395.95 361.127C1394.54 360.88 1393.14 360.644 1391.73 360.417C1392.21 358.695 1392.4 357.18 1393.38 355.725L1397.23 355.328Z"/><path fill="#1A1816" fill-opacity="0.92156863" d="M1278.41 430.121L1279.86 430.416C1278.72 437.586 1278.74 442.238 1278.57 449.446C1284.08 449.449 1289.89 449.23 1295.33 449.605C1290.51 450.277 1282.96 450.13 1277.98 450.038C1278.03 444.215 1279.98 440.298 1274.54 437.685C1276.03 434.876 1277.23 433.221 1278.41 430.121Z"/><path fill="#1A1816" fill-opacity="0.15686275" d="M1159.56 438.995C1162.29 438.136 1173.96 443.99 1164.08 446.858L1160.77 446.901C1162.76 444.006 1162.3 442.471 1159.64 440.3L1159.56 438.995Z"/><path fill="#1A1816" fill-opacity="0.98823529" d="M612.164 349.944C612.418 351.62 612.684 353.293 612.96 354.966C612.458 359.376 612.14 364.913 611.848 369.349C611.415 364.934 612.335 361.95 608.565 359.09C609.554 356.115 611.028 352.96 612.164 349.944Z"/><path fill="#1A1816" fill-opacity="0.67058825" d="M1158.86 431.194C1159.28 434.054 1159.43 436.117 1159.56 438.995L1159.64 440.3C1159.56 443.039 1158.61 445.135 1160.77 446.901L1164.08 446.858L1165.66 447.087C1170.95 447.883 1158.95 449.55 1158.83 449.563C1158.72 443.83 1158.66 436.902 1158.86 431.194Z"/><path fill="#1A1816" fill-opacity="0.26274511" d="M1159.64 440.3C1162.3 442.471 1162.76 444.006 1160.77 446.901C1158.61 445.135 1159.56 443.039 1159.64 440.3Z"/></svg>