<?xml version="1.0" encoding="utf-8" ?><svg xmlns="http://www.w3.org/2000/svg" xmlns:xlink="http://www.w3.org/1999/xlink" width="1024" height="1024" viewBox="0 0 1024 1024"><path fill="#F97316" d="M503.785 269.482L507.233 269.318C506.864 271.372 506.686 276.651 507.599 278.672C505.819 279.159 504.902 279.115 503.088 279.181C496.642 280.162 489.334 280.295 482.762 281.141C475.295 282.103 468.144 283.542 460.815 285.236C407.073 297.97 359.51 329.175 326.431 373.403C304.431 402.825 289.695 437.031 283.425 473.23C281.551 484.013 280.177 496.033 280.518 506.95L281.45 507.062C281.539 509.994 281.635 512.499 281.358 515.439L280.636 515.45C277.81 515.223 273.304 515.072 270.361 514.991C270.236 514.835 270.112 514.679 269.987 514.523C269.605 512.464 269.794 510.113 269.698 507.896L270.128 507.457C270.824 496.48 271.371 485.771 273.114 474.876C281.403 423.063 305.733 377.142 342.511 339.854C352.548 329.678 361.425 322.91 372.793 314.593C403.15 292.384 438.925 278.068 476.045 272.334C485.197 270.921 494.399 269.582 503.785 269.482Z"/><path fill="#F7D0BE" d="M280.518 506.95L281.45 507.062C281.539 509.994 281.635 512.499 281.358 515.439L280.636 515.45C277.81 515.223 273.304 515.072 270.361 514.991C270.236 514.835 270.112 514.679 269.987 514.523C269.605 512.464 269.794 510.113 269.698 507.896L270.128 507.457C273.99 506.989 276.75 507.156 280.518 506.95Z"/><path fill="#F97316" d="M271.316 508.092C280.287 508.178 280.148 506.274 280.053 514.02C277.055 514.057 274.056 514.078 271.057 514.082C271.04 512.107 271.073 510.051 271.316 508.092Z"/><path fill="#F97316" d="M744.293 515.924C747.31 515.549 750.87 515.645 753.984 515.422C754.201 528.411 752.238 544.294 749.767 557.011C741.024 603.484 718.706 646.324 685.631 680.12C641.44 725.819 580.767 754.016 516.882 755.024C517.124 751.667 516.928 748.163 517.218 744.899C520.101 745.099 523.106 745.086 525.987 744.91C586.567 741.214 643.742 712.39 684.039 667.596C714.486 634.134 734.532 592.53 741.727 547.865C743.273 538.299 744.775 525.597 744.293 515.924Z"/><path fill="#F97316" d="M270.361 514.991C273.304 515.072 277.81 515.223 280.636 515.45C280.226 526.829 281.977 542.709 284.005 553.81C291.943 597.685 312.485 638.3 343.123 670.693C376.606 707.097 420.948 731.716 469.551 740.886C483.889 743.675 494.065 743.791 507.371 745.755C507.038 748.164 507.496 752.557 508.089 754.927C504.2 754.372 498.534 754.47 494.294 754.046C485.971 753.213 477.594 752.316 469.352 750.876C423.039 742.346 380.274 720.338 346.415 687.609C298.726 641.363 271.344 581.8 270.361 514.991Z"/><path fill="#F97316" d="M516.94 269.406C582.068 271.989 643.089 297.93 687.676 346.017C719.928 380.6 741.678 423.644 750.387 470.124C751.854 478.232 752.681 484.94 753.278 493.154C753.509 496.326 753.877 504.394 754.404 507.182C751.161 507.001 747.447 507.122 744.426 506.884C745.259 487.653 739.881 462.75 734.244 444.567C710.051 366.564 647.175 306.661 568.093 286.271C558.1 283.652 550.171 282.534 539.979 280.979C535.376 280.277 518.573 279.905 516.64 278.208C517.282 275.705 517.002 272.081 516.94 269.406Z"/><path fill="#F97316" d="M662.023 511.936C662.085 508.487 660.697 504.163 663.806 503.251C670.999 504.336 680.88 504.363 688.385 504.78C706.847 505.806 725.437 505.864 743.894 507.015C743.874 510.271 743.633 512.554 743.871 515.866C732.476 515.972 720.004 516.945 708.499 517.472C693.871 518.141 678.002 517.798 663.567 518.703C662.314 529.026 661.319 537.767 658.761 547.886C650.184 580.64 631.093 609.672 604.42 630.526C585.644 645.281 563.703 655.481 540.319 660.324C533.613 661.669 527.245 662.214 520.5 663.108C519.134 680.653 518.822 699.994 517.757 717.694C517.418 723.327 516.607 739.514 517.024 744.403C514.349 744.535 510.957 744.465 508.216 744.465L506.255 693.455C506.014 686.55 505.794 668.354 504.506 662.195L504.076 661.77C504.214 661.429 504.229 661.02 504.275 660.658C503.904 659.347 503.742 658.512 503.504 657.169C502.714 656.98 501.912 656.853 501.112 656.717C502.399 656.313 503.942 655.974 505.116 655.479C508.414 655.113 516.78 654.946 520.051 655.788C521.025 657.127 526.963 656.404 529.299 656.624C533.923 657.703 542.066 655.597 546.633 654.405C569.748 648.227 591.048 636.603 608.748 620.503C631.411 599.59 646.688 576.039 654.549 546.048C656.345 539.199 658.31 530.47 658.569 523.5C658.268 521.8 657.622 521.872 657.752 520.256C659.954 519.721 659.189 506.583 659.181 503.942C659.665 503.994 660.651 503.999 660.995 504.351C660.813 508.41 660.008 509.389 660.355 513.779L662.023 511.936Z"/><path fill="#FEFDFB" d="M505.116 655.479C508.414 655.113 516.78 654.946 520.051 655.788C521.025 657.127 526.963 656.404 529.299 656.624C529.179 658.307 521.991 658.004 520.544 658.075L519.951 658.484C515.841 658.197 508.026 658.379 504.466 657.407L503.504 657.169C502.714 656.98 501.912 656.853 501.112 656.717C502.399 656.313 503.942 655.974 505.116 655.479Z"/><path fill="#F97316" d="M503.504 657.169L504.466 657.407C508.026 658.379 515.841 658.197 519.951 658.484C519.946 658.608 519.968 659.817 519.673 659.859C514.745 660.558 509.312 660.146 504.275 660.658C503.904 659.347 503.742 658.512 503.504 657.169Z"/><path fill="#FEFDFB" d="M519.951 658.484L520.544 658.075C520.676 658.834 521.159 661.97 520.642 662.524C517.258 662.124 507.578 661.682 504.506 662.195L504.076 661.77C504.214 661.429 504.229 661.02 504.275 660.658C509.312 660.146 514.745 660.558 519.673 659.859C519.968 659.817 519.946 658.608 519.951 658.484Z"/><path fill="#F19A6A" d="M659.181 503.942C659.665 503.994 660.651 503.999 660.995 504.351C660.813 508.41 660.008 509.389 660.355 513.779C660.25 515.334 660.157 517.486 660.451 518.999C658.229 520.207 659.53 520.982 658.569 523.5C658.268 521.8 657.622 521.872 657.752 520.256C659.954 519.721 659.189 506.583 659.181 503.942Z"/><path fill="#FEFDFB" d="M662.023 511.936C662.034 514.733 663.18 518.364 660.451 518.999C660.157 517.486 660.25 515.334 660.355 513.779L662.023 511.936Z"/><path fill="#F97316" d="M507.995 279.327C511.319 279.498 513.297 279.315 516.554 279.18C517.367 284.715 517.546 290.35 517.566 295.939C517.644 317.667 519.125 339.281 520.035 360.956C520.862 361.14 521.479 361.303 522.293 361.534L521.535 361.786C519.801 362.336 520.437 363.819 520.373 365.53C517.971 365.895 514.785 365.994 512.363 365.88L511.825 367.667L510.918 367.476C508.628 367.631 506.763 367.468 504.568 367.569L504.334 366.455L504.15 366.302C504.163 363.203 505.284 361.676 502.171 361.211C503.367 360.939 503.588 360.855 504.796 360.786C505.93 353.405 505.789 337.893 506.216 329.869C507.097 313.295 508.095 295.879 507.995 279.327Z"/><path fill="#F7D0BE" d="M502.171 361.211C503.367 360.939 503.588 360.855 504.796 360.786C507.417 361.15 517.193 361.095 520.035 360.956C520.862 361.14 521.479 361.303 522.293 361.534L521.535 361.786C519.801 362.336 520.437 363.819 520.373 365.53C517.971 365.895 514.785 365.994 512.363 365.88L511.825 367.667L510.918 367.476C508.628 367.631 506.763 367.468 504.568 367.569L504.334 366.455L504.15 366.302C504.163 363.203 505.284 361.676 502.171 361.211Z"/><path fill="#F97316" d="M512.363 365.88C511.538 365.81 501.979 366.811 505.841 362.632C506.175 362.27 517.276 363.26 518.773 363.191C519.163 363.173 519.816 364.418 519.987 364.768L520.373 365.53C517.971 365.895 514.785 365.994 512.363 365.88Z"/><path fill="#FEFDFB" d="M504.334 366.455C506.181 366.025 510.617 365.003 510.918 367.476C508.628 367.631 506.763 367.468 504.568 367.569L504.334 366.455Z"/><path fill="#F97316" d="M361.265 522.764C361.752 518.923 361.511 520.478 365.476 519.702C366.347 529.407 367.491 539.035 369.903 548.462C377.367 577.626 395.031 605.531 418.354 624.653C443.247 645.062 469.013 655.115 501.112 656.717C501.912 656.853 502.714 656.98 503.504 657.169C503.742 658.512 503.904 659.347 504.275 660.658C504.229 661.02 504.214 661.429 504.076 661.77C467.564 659.796 438.899 648.91 411.333 624.698C381.821 598.677 363.819 562.026 361.265 522.764Z"/><path fill="#F97316" d="M502.171 361.211C505.284 361.676 504.163 363.203 504.15 366.302C498.694 365.779 491.368 366.949 485.988 367.947C461.22 372.558 438.068 383.505 418.788 399.723C394.096 420.102 376.755 448.003 369.412 479.164C367.366 487.732 366.595 494.293 365.46 502.979C364.37 502.93 363.294 502.706 362.202 502.813L361.413 502.869C361.749 474.562 376.47 438.852 394.617 417.299C423.64 382.829 458.149 365.718 502.171 361.211Z"/><path fill="#F97316" d="M522.293 361.534C531.102 362.637 538.189 362.987 547.068 365.023C581.69 372.962 611.769 394.196 633.311 422.096C648.264 441.463 658.717 467.058 662.23 491.194C662.552 493.407 663.887 501.056 663.802 502.92C662.132 502.84 660.762 502.838 659.106 502.826C656.55 470.383 643.382 439.684 621.636 415.472C596.187 386.012 559.857 368.162 520.986 366.017L520.373 365.53C520.437 363.819 519.801 362.336 521.535 361.786L522.293 361.534Z"/><path fill="#F97316" d="M361.413 502.869C363.264 505.212 362.646 506.594 362.541 510.162C362.219 513.052 362.678 515.998 362.185 518.726C362.179 518.763 360.757 519.444 360.548 519.582C351.377 518.174 342.781 518.551 333.678 517.923C316.657 516.75 298.214 517.195 281.358 515.439C281.635 512.499 281.539 509.994 281.45 507.062C288.122 506.846 359.648 504.44 361.413 502.869Z"/><path fill="#F97316" d="M504.936 617.57C510.129 617.601 514.753 617.76 519.98 617.541C520.051 630.04 520.236 643.342 520.051 655.788C516.78 654.946 508.414 655.113 505.116 655.479C504.911 642.844 504.851 630.207 504.936 617.57Z"/><path fill="#F97316" d="M511.825 367.667C514.395 367.453 517.292 367.541 519.959 367.435C520.084 378.766 520.445 394.156 520.044 405.257C515.354 405.38 510.13 405.202 505.379 405.141C504.389 393.11 505.793 379.437 504.568 367.569C506.763 367.468 508.628 367.631 510.918 367.476L511.825 367.667Z"/><path fill="#F97316" d="M369.359 503.278C374.909 504.394 398.579 503.746 406.164 503.846C406.375 508.626 406.244 514.233 406.299 519.087L369.534 518.974C369.492 517.006 369.555 512.149 369.197 510.507C369.483 507.918 369.384 505.859 369.359 503.278Z"/><path fill="#F97316" d="M617.789 503.822C629.841 503.772 642.006 504.068 654.032 503.512C654.056 505.337 654.033 507.192 654.074 509.006C654.035 510.941 653.904 513.544 654.264 515.381C654.182 515.829 654.103 516.278 654.028 516.728C653.93 517.335 653.93 518.23 653.51 518.738C653.084 519.254 621.883 519.126 617.984 519.162C617.943 514.023 617.769 508.975 617.789 503.822Z"/><path fill="#F97316" d="M517.024 744.403L517.218 744.899C516.928 748.163 517.124 751.667 516.882 755.024L516.163 755.641C515.849 767.648 514.814 779.859 514.255 791.938C513.668 804.641 514.207 819.74 512.901 832.166C513.229 836.5 512.345 840.564 512.649 845.194L511.47 845.944C511.335 840.105 510.994 832.754 510.661 826.922C510.436 823.528 510.368 819.355 510.412 815.957C510.67 795.764 508.456 775.157 508.559 755.04L508.089 754.927C507.496 752.557 507.038 748.164 507.371 745.755L508.216 744.465C510.957 744.465 514.349 744.535 517.024 744.403Z"/><path fill="#F7D0BE" d="M517.024 744.403L517.218 744.899C516.928 748.163 517.124 751.667 516.882 755.024L516.163 755.641C515.88 752.466 516.096 748.968 516.254 745.773L508.44 745.599C508.555 748.124 509.025 752.755 508.559 755.04L508.089 754.927C507.496 752.557 507.038 748.164 507.371 745.755L508.216 744.465C510.957 744.465 514.349 744.535 517.024 744.403Z"/><path fill="#F19A6A" d="M510.661 826.922C512.378 829.779 511.454 834.072 511.928 834.517C512.641 834.21 511.689 833.235 512.901 832.166C513.229 836.5 512.345 840.564 512.649 845.194L511.47 845.944C511.335 840.105 510.994 832.754 510.661 826.922Z"/><path fill="#F97316" d="M510.66 204.5C512.359 201.539 511.162 197.075 512.165 196.95C513.635 198.329 511.546 201.588 513.806 204.731C514.138 226.144 514.857 247.549 515.964 268.935L516.94 269.406C517.002 272.081 517.282 275.705 516.64 278.208L516.554 279.18C513.297 279.315 511.319 279.498 507.995 279.327L507.599 278.672C506.686 276.651 506.864 271.372 507.233 269.318L508.444 268.723C509.169 247.041 510.27 226.419 510.66 204.5Z"/><path fill="#F7D0BE" d="M507.233 269.318L508.444 268.723C508.974 280.437 505.823 278.31 516.128 277.78L516.64 278.208L516.554 279.18C513.297 279.315 511.319 279.498 507.995 279.327L507.599 278.672C506.686 276.651 506.864 271.372 507.233 269.318Z"/><path fill="#EFB294" d="M515.964 268.935L516.94 269.406C517.002 272.081 517.282 275.705 516.64 278.208L516.128 277.78C515.902 274.936 515.891 271.793 515.964 268.935Z"/><path fill="#F97316" d="M184.831 510.536C191.279 510.272 197.892 508.46 204.38 508.504C226.295 508.653 247.787 508.641 269.698 507.896C269.794 510.113 269.605 512.464 269.987 514.523C239.535 513.255 207.409 514.059 177.103 511.906C179.645 510.426 180.632 512.004 184.831 510.536Z"/><path fill="#F97316" d="M754.649 507.454C771.303 508.935 788.675 508.649 805.37 508.605C812.657 508.585 820.807 509.606 828.177 510.02C829.989 512.287 842.9 509.769 838.65 512.464C828.738 512.663 756.352 514.98 754.695 513.987L754.503 513.305C755.177 510.987 755.061 509.945 754.649 507.454Z"/><path fill="#F7D0BE" d="M744.426 506.884C747.447 507.122 751.161 507.001 754.404 507.182L754.649 507.454C755.061 509.945 755.177 510.987 754.503 513.305C753.703 513.293 754.024 514.594 753.984 515.422C750.87 515.645 747.31 515.549 744.293 515.924L743.871 515.866C743.633 512.554 743.874 510.271 743.894 507.015L744.426 506.884Z"/><path fill="#F97316" d="M744.83 508.253C751.909 508.27 754.463 506.572 753.444 513.865C750.169 514.757 748.315 514.512 744.904 514.567L744.83 508.253Z"/><path fill="#FEFDFB" fill-opacity="0.56862748" d="M654.032 503.512C655.894 503.598 657.179 503.552 659.009 503.551L659.181 503.942C659.189 506.583 659.954 519.721 657.752 520.256C657.622 521.872 658.268 521.8 658.569 523.5C657.073 522.554 657.169 522.334 656.986 520.567L656.85 519.672C656.871 519.171 657.035 516.545 656.719 516.196C654.769 514.043 657.054 509.452 654.074 509.006C654.033 507.192 654.056 505.337 654.032 503.512Z"/><path fill="#F19A6A" fill-opacity="0.98823529" d="M510.66 204.5C510.791 201.803 511.237 175.376 511.756 174.801C511.827 174.792 511.908 174.77 511.919 174.816C513.279 180.501 513.652 199.989 513.806 204.731C511.546 201.588 513.635 198.329 512.165 196.95C511.162 197.075 512.359 201.539 510.66 204.5Z"/><path fill="#FEFDFB" d="M361.413 502.869L362.202 502.813C363.294 502.706 364.37 502.93 365.46 502.979C365.961 503.307 367.988 502.901 369.359 503.278C369.384 505.859 369.483 507.918 369.197 510.507C367.57 509.014 367.452 508.79 366.142 506.974C365.761 507.754 365.507 508.49 365.202 509.3C363.886 509.204 364.392 504.737 364.393 503.578C363.898 505.953 363.991 506.622 364.192 509.114L362.861 510.126L362.541 510.162C362.646 506.594 363.264 505.212 361.413 502.869Z"/><path fill="#F97316" d="M364.393 503.578C366.547 504.193 364.907 505.271 366.142 506.974C365.761 507.754 365.507 508.49 365.202 509.3C363.886 509.204 364.392 504.737 364.393 503.578Z"/><path fill="#F19A6A" fill-opacity="0.97647059" d="M828.177 510.02C832.417 509.666 846.79 510.509 850.967 511.29C850.682 511.418 850.641 511.522 850.418 511.776C846.507 512.165 842.581 512.395 838.65 512.464C842.9 509.769 829.989 512.287 828.177 510.02Z"/><path fill="#F19A6A" fill-opacity="0.91764706" d="M364.192 509.114C363.991 506.622 363.898 505.953 364.393 503.578C364.392 504.737 363.886 509.204 365.202 509.3C365.245 509.664 365.464 518.699 365.476 519.702C361.511 520.478 361.752 518.923 361.265 522.764C361.109 521.498 361.291 520.593 360.548 519.582C360.757 519.444 362.179 518.763 362.185 518.726C362.678 515.998 362.219 513.052 362.541 510.162L362.861 510.126C362.857 510.983 362.881 511.817 362.899 512.674C363.027 513.734 362.927 518.525 363.032 518.751C364.623 522.191 364.049 510.71 364.018 509.923L364.192 509.114Z"/><path fill="#FEFDFB" fill-opacity="0.27843139" d="M654.074 509.006C657.054 509.452 654.769 514.043 656.719 516.196C657.035 516.545 656.871 519.171 656.85 519.672C653.931 517.581 655.163 518.924 654.264 515.381C653.904 513.544 654.035 510.941 654.074 509.006Z"/><path fill="#FEFDFB" fill-opacity="0.84705883" d="M659.106 502.826C660.762 502.838 662.132 502.84 663.802 502.92L663.806 503.251C660.697 504.163 662.085 508.487 662.023 511.936L660.355 513.779C660.008 509.389 660.813 508.41 660.995 504.351C660.651 503.999 659.665 503.994 659.181 503.942L659.009 503.551L659.106 502.826Z"/><path fill="#F19A6A" fill-opacity="0.93333334" d="M171.523 511.05C176.603 510.836 179.564 510.37 184.831 510.536C180.632 512.004 179.645 510.426 177.103 511.906C175.437 512.014 174.53 511.949 172.857 511.854C172.237 511.269 172.316 511.306 171.523 511.05Z"/><path fill="#FEFDFB" fill-opacity="0.40392157" d="M364.018 509.923C364.049 510.71 364.623 522.191 363.032 518.751C362.927 518.525 363.027 513.734 362.899 512.674L364.018 509.923Z"/><path fill="#FEFDFB" fill-opacity="0.60000002" d="M364.192 509.114L364.018 509.923L362.899 512.674C362.881 511.817 362.857 510.983 362.861 510.126L364.192 509.114Z"/><path fill="#F19A6A" fill-opacity="0.83529413" d="M512.649 845.194C512.473 846.577 511.969 848.785 511.47 845.944L512.649 845.194Z"/><path fill="#F19A6A" fill-opacity="0.56470591" d="M850.967 511.29C851.225 511.432 851.432 511.542 851.643 511.728C851.232 511.751 850.853 511.767 850.418 511.776C850.641 511.522 850.682 511.418 850.967 511.29Z"/><path fill="#EFB294" fill-opacity="0.56078434" d="M172.857 511.854C172.136 511.891 170.886 512.143 171.523 511.05C172.316 511.306 172.237 511.269 172.857 511.854Z"/></svg>